<mxfile host="app.diagrams.net" agent="Mozilla/5.0 (Windows NT 10.0; Win64; x64) AppleWebKit/537.36 (KHTML, like Gecko) Chrome/128.0.0.0 Safari/537.36" version="24.7.12">
  <diagram name="Page-1" id="BdZ7FbwZdVsRmKBtRhWC">
    <mxGraphModel grid="1" page="1" gridSize="10" guides="1" tooltips="1" connect="1" arrows="1" fold="1" pageScale="1" pageWidth="850" pageHeight="1100" math="0" shadow="0">
      <root>
        <mxCell id="0" />
        <mxCell id="1" parent="0" />
        <mxCell id="HAfeOrGlw5gHPN3-z-JI-4" value="" style="edgeStyle=orthogonalEdgeStyle;rounded=0;orthogonalLoop=1;jettySize=auto;html=1;" edge="1" parent="1" source="HAfeOrGlw5gHPN3-z-JI-2" target="HAfeOrGlw5gHPN3-z-JI-3">
          <mxGeometry relative="1" as="geometry" />
        </mxCell>
        <mxCell id="HAfeOrGlw5gHPN3-z-JI-2" value="Start" style="strokeWidth=2;html=1;shape=mxgraph.flowchart.start_1;whiteSpace=wrap;" vertex="1" parent="1">
          <mxGeometry x="100" y="10" width="100" height="60" as="geometry" />
        </mxCell>
        <mxCell id="-gA0lMWgrhbzyALXGAwS-2" value="" style="edgeStyle=orthogonalEdgeStyle;rounded=0;orthogonalLoop=1;jettySize=auto;html=1;" edge="1" parent="1" source="HAfeOrGlw5gHPN3-z-JI-3" target="-gA0lMWgrhbzyALXGAwS-1">
          <mxGeometry relative="1" as="geometry" />
        </mxCell>
        <mxCell id="HAfeOrGlw5gHPN3-z-JI-3" value="Input Name&lt;div&gt;studentname&lt;br&gt;Input Subject&lt;/div&gt;&lt;div&gt;studentsubject&lt;/div&gt;" style="shape=parallelogram;perimeter=parallelogramPerimeter;whiteSpace=wrap;html=1;fixedSize=1;strokeWidth=2;" vertex="1" parent="1">
          <mxGeometry x="80" y="130" width="140" height="80" as="geometry" />
        </mxCell>
        <mxCell id="-gA0lMWgrhbzyALXGAwS-4" value="" style="edgeStyle=orthogonalEdgeStyle;rounded=0;orthogonalLoop=1;jettySize=auto;html=1;" edge="1" parent="1" source="-gA0lMWgrhbzyALXGAwS-1" target="-gA0lMWgrhbzyALXGAwS-3">
          <mxGeometry relative="1" as="geometry" />
        </mxCell>
        <mxCell id="-gA0lMWgrhbzyALXGAwS-1" value="Compare studentsubject with subject in classroomdict" style="whiteSpace=wrap;html=1;strokeWidth=2;" vertex="1" parent="1">
          <mxGeometry x="75" y="310" width="150" height="80" as="geometry" />
        </mxCell>
        <mxCell id="-gA0lMWgrhbzyALXGAwS-6" value="" style="edgeStyle=orthogonalEdgeStyle;rounded=0;orthogonalLoop=1;jettySize=auto;html=1;" edge="1" parent="1" source="-gA0lMWgrhbzyALXGAwS-3" target="-gA0lMWgrhbzyALXGAwS-5">
          <mxGeometry relative="1" as="geometry" />
        </mxCell>
        <mxCell id="-gA0lMWgrhbzyALXGAwS-11" value="" style="edgeStyle=orthogonalEdgeStyle;rounded=0;orthogonalLoop=1;jettySize=auto;html=1;" edge="1" parent="1" source="-gA0lMWgrhbzyALXGAwS-3" target="-gA0lMWgrhbzyALXGAwS-10">
          <mxGeometry relative="1" as="geometry" />
        </mxCell>
        <mxCell id="-gA0lMWgrhbzyALXGAwS-3" value="is studentsubject in classroomdict?" style="rhombus;whiteSpace=wrap;html=1;strokeWidth=2;" vertex="1" parent="1">
          <mxGeometry x="72.5" y="510" width="155" height="160" as="geometry" />
        </mxCell>
        <mxCell id="-gA0lMWgrhbzyALXGAwS-8" value="" style="edgeStyle=orthogonalEdgeStyle;rounded=0;orthogonalLoop=1;jettySize=auto;html=1;entryX=0;entryY=0.5;entryDx=0;entryDy=0;entryPerimeter=0;" edge="1" parent="1" source="-gA0lMWgrhbzyALXGAwS-5" target="-gA0lMWgrhbzyALXGAwS-9">
          <mxGeometry relative="1" as="geometry">
            <mxPoint x="652.5" y="570" as="targetPoint" />
          </mxGeometry>
        </mxCell>
        <mxCell id="-gA0lMWgrhbzyALXGAwS-5" value="Display &quot;subjectname go to classroomnumber&quot;" style="whiteSpace=wrap;html=1;strokeWidth=2;" vertex="1" parent="1">
          <mxGeometry x="370" y="550" width="175" height="80" as="geometry" />
        </mxCell>
        <mxCell id="-gA0lMWgrhbzyALXGAwS-9" value="End" style="strokeWidth=2;html=1;shape=mxgraph.flowchart.start_1;whiteSpace=wrap;" vertex="1" parent="1">
          <mxGeometry x="680" y="560" width="100" height="60" as="geometry" />
        </mxCell>
        <mxCell id="-gA0lMWgrhbzyALXGAwS-13" value="" style="edgeStyle=orthogonalEdgeStyle;rounded=0;orthogonalLoop=1;jettySize=auto;html=1;" edge="1" parent="1" source="-gA0lMWgrhbzyALXGAwS-10">
          <mxGeometry relative="1" as="geometry">
            <mxPoint x="150" y="970" as="targetPoint" />
          </mxGeometry>
        </mxCell>
        <mxCell id="-gA0lMWgrhbzyALXGAwS-10" value="Display &quot;I don&#39;t have advice for you&quot;" style="whiteSpace=wrap;html=1;strokeWidth=2;" vertex="1" parent="1">
          <mxGeometry x="50" y="780" width="200" height="100" as="geometry" />
        </mxCell>
        <mxCell id="-gA0lMWgrhbzyALXGAwS-14" value="End" style="strokeWidth=2;html=1;shape=mxgraph.flowchart.start_1;whiteSpace=wrap;" vertex="1" parent="1">
          <mxGeometry x="100" y="970" width="100" height="60" as="geometry" />
        </mxCell>
      </root>
    </mxGraphModel>
  </diagram>
</mxfile>
